<svg width="10" height="10" viewBox="0 0 10 10" fill="none" xmlns="http://www.w3.org/2000/svg">
<path d="M5.77329 4.13109L6.56163 3.34331C6.23754 3.05369 5.83564 2.86547 5.40566 2.80194C4.97569 2.73842 4.53653 2.80237 4.14254 2.9859C3.74854 3.16943 3.41702 3.46446 3.189 3.83449C2.96098 4.20451 2.84648 4.63328 2.85967 5.06772C2.87285 5.50217 3.01315 5.9232 3.26319 6.27872C3.51324 6.63423 3.86205 6.90862 4.26645 7.06791C4.67085 7.2272 5.11308 7.2644 5.53841 7.17491C5.96373 7.08542 6.35348 6.87317 6.65941 6.56442L5.92996 5.83498H5.81329C5.65445 5.97443 5.45913 6.06568 5.25025 6.09803C5.04137 6.13037 4.8276 6.10246 4.63402 6.01758C4.44045 5.93269 4.2751 5.79435 4.15738 5.6188C4.03967 5.44324 3.97447 5.23775 3.96944 5.02644C3.96441 4.81513 4.01976 4.60677 4.12899 4.42581C4.23822 4.24485 4.3968 4.0988 4.58611 4.0048C4.77543 3.91081 4.98764 3.87276 5.19782 3.89513C5.408 3.9175 5.60744 3.99935 5.77274 4.13109H5.77329Z" fill="white" fill-opacity="0.7"/>
<path fill-rule="evenodd" clip-rule="evenodd" d="M5 0C5.65661 -9.78424e-09 6.30679 0.129329 6.91342 0.380602C7.52005 0.631876 8.07124 1.00017 8.53553 1.46447C8.99983 1.92876 9.36812 2.47995 9.6194 3.08658C9.87067 3.69321 10 4.34339 10 5C10 5.65661 9.87067 6.30679 9.6194 6.91342C9.36812 7.52005 8.99983 8.07124 8.53553 8.53553C8.07124 8.99983 7.52005 9.36812 6.91342 9.6194C6.30679 9.87067 5.65661 10 5 10C3.67392 10 2.40215 9.47322 1.46447 8.53553C0.526784 7.59785 0 6.32608 0 5C0 3.67392 0.526784 2.40215 1.46447 1.46447C2.40215 0.526784 3.67392 1.97602e-08 5 0ZM5 1.11111C5.5107 1.11111 6.01639 1.2117 6.48821 1.40714C6.96004 1.60257 7.38874 1.88902 7.74986 2.25014C8.11098 2.61126 8.39743 3.03996 8.59287 3.51179C8.7883 3.98361 8.88889 4.4893 8.88889 5C8.88889 5.5107 8.7883 6.01639 8.59287 6.48821C8.39743 6.96004 8.11098 7.38874 7.74986 7.74986C7.38874 8.11098 6.96004 8.39743 6.48821 8.59287C6.01639 8.7883 5.5107 8.88889 5 8.88889C3.9686 8.88889 2.97945 8.47917 2.25014 7.74986C1.52083 7.02055 1.11111 6.0314 1.11111 5C1.11111 3.9686 1.52083 2.97945 2.25014 2.25014C2.97945 1.52083 3.9686 1.11111 5 1.11111Z" fill="white" fill-opacity="0.7"/>
</svg>
