<svg width="17" height="13" viewBox="0 0 17 13" fill="none" xmlns="http://www.w3.org/2000/svg">
<path d="M15.2881 0C15.7658 0 16.1706 0.158382 16.5023 0.475146C16.8341 0.79191 17 1.17836 17 1.6345V11.3655C17 11.8216 16.8341 12.2081 16.5023 12.5249C16.1706 12.8416 15.7658 13 15.2881 13H1.71194C1.23419 13 0.82943 12.8416 0.497658 12.5249C0.165886 12.2081 0 11.8216 0 11.3655V1.6345C0 1.17836 0.165886 0.79191 0.497658 0.475146C0.82943 0.158382 1.23419 0 1.71194 0H15.2881ZM15.2881 3.26901V1.6345L8.48009 6.70175L1.71194 1.6345V3.26901L8.48009 8.29825L15.2881 3.26901Z" fill="white"/>
<path d="M6.5 6.5L1 11" stroke="#B760A5"/>
<path d="M10 6L16.5 11" stroke="#B760A5"/>
</svg>
