<svg width="237" height="63" viewBox="0 0 237 63" fill="none" xmlns="http://www.w3.org/2000/svg">
<path d="M99.4573 39.225L104.722 5.86318H116.655L123.674 20.507L126.13 5.86318H137.222L132.026 39.225H119.883L112.723 24.7226L110.337 39.225H99.4573Z" fill="#BF5C9F"/>
<path d="M138.345 5.86318L133.151 39.225H155.823L157.297 29.8669H146.276L146.768 26.7941H156.735L158.14 18.0782H148.242L148.734 14.9365H159.754L160.526 9.93545L163.264 39.225H174.074L180.882 22.0797L182.216 39.225H193.095L206.573 5.79244H194.71L188.884 22.223L187.691 5.86318H178.986L172.81 22.1505L172.038 5.71988L138.345 5.86318Z" fill="#BF5C9F"/>
<path d="M228.263 7.79139L224.051 16.8647C224.051 16.8647 220.893 14.2925 217.558 14.0785C214.223 13.8644 214.118 15.8997 216.364 17.0787C218.61 18.2578 224.611 21.2217 226.051 24.7934C227.489 28.365 224.647 36.437 218.61 38.7588C212.573 41.0806 205.377 40.9011 198.253 36.758L203.062 27.7573C203.062 27.7573 208.538 32.401 212.503 30.9371C216.469 29.4733 211.17 26.6145 207.274 24.8296C203.378 23.0429 202.465 20.3656 202.747 16.2207C203.028 12.0759 206.466 6.75563 212.539 5.46956C218.611 4.18348 222.682 4.75487 228.263 7.79139Z" fill="#BF5C9F"/>
<path d="M110.454 11.9598C105.448 5.01244 96.8925 5.3843 89.4298 5.3843H78.6002L74.2316 30.0211H60.0333L60.7605 26.5021H71.2265L72.6845 18.2578H62.1258L62.7639 14.9238H75.0497L76.8695 5.3843H45.7442L35.7327 21.5011L36.0963 5.3843H20.26L4.96921 39.3774L18.6221 39.5624L25.174 24.465L25.903 39.4699H35.2764L45.197 24.465L42.4664 39.5315C75.3224 39.5315 94.2546 41.5994 102.354 36.5059C110.18 31.5847 115.461 18.9071 110.454 11.9598ZM98.2132 20.527C98.0314 24.7426 96.5289 27.1043 94.2083 28.726C91.8876 30.3458 87.6563 29.7907 87.6563 29.7907L90.1587 15.4335C93.9801 15.1088 98.395 16.3132 98.2132 20.527Z" fill="#833F6D"/>
<path d="M16.4498 57.2665L15.0853 58.9205L13.4176 57.5146C12.6733 58.4243 11.4742 58.948 9.9581 58.948C7.27045 58.948 5.5476 57.3217 5.5476 54.7856V48.3353H8.06986V54.7856C8.06986 56.0261 8.88304 56.7979 9.97188 56.7979C11.0469 56.7979 11.7912 56.0399 11.7912 54.7856V48.3353H14.3135V54.7856C14.3135 55.0062 14.2997 55.2267 14.2721 55.4334L16.4498 57.2665ZM37.3565 53.8484V55.8607H35.1099V58.7689H32.5876V52.3185C32.5876 51.0643 31.8434 50.3062 30.7683 50.3062C29.6795 50.3062 28.8663 51.0781 28.8663 52.3185V58.7689H26.344V52.3185C26.344 49.7825 28.0669 48.1561 30.7545 48.1561C33.4284 48.1561 35.1099 49.7825 35.1099 52.3185V53.8484H37.3565ZM50.0261 52.3185V58.7689H47.5039V52.3185C47.5039 49.7825 49.2267 48.1561 51.9144 48.1561C54.5882 48.1561 56.2697 49.7825 56.2697 52.3185V58.7689H53.7475V52.3185C53.7475 51.0643 53.0032 50.3062 51.9281 50.3062C50.8393 50.3062 50.0261 51.0781 50.0261 52.3185ZM75.9759 56.7566H78.2225V58.7689H73.4536V52.3185C73.4536 51.0781 72.6542 50.3062 71.5654 50.3062C70.4766 50.3062 69.7323 51.0643 69.7323 52.3185V54H67.21V52.3185C67.21 49.7825 68.9053 48.1561 71.5654 48.1561C74.253 48.1561 75.9759 49.7825 75.9759 52.3185V56.7566ZM94.5446 55.6402C96.3777 55.6402 97.5079 56.605 97.5079 58.4519V58.7689H94.9718V58.5621C94.9718 58.0108 94.5997 57.6525 94.0346 57.6525H90.5062V58.7689H87.984V54.6754H90.5062V55.6402H90.6165C91.4021 55.1853 92.1188 54.3997 90.6302 54.0138C88.7558 53.5314 88.3147 52.6493 88.3147 51.464V51.4502C88.3147 49.5895 90.0238 48.1561 92.6839 48.1561C95.3715 48.1561 97.2736 49.5757 97.246 52.0291C97.2322 53.6141 96.0882 55.1302 94.2689 55.6402H94.5446ZM90.9059 51.464C90.9059 52.2634 91.4572 52.3874 92.0912 52.608C93.0009 52.9387 93.4557 53.3798 93.6211 53.876C94.2689 53.3247 94.6824 52.7596 94.71 52.1669C94.7789 51.0229 93.9243 50.3062 92.7528 50.3062C91.595 50.3062 90.9059 50.7611 90.9059 51.4502V51.464ZM126.819 56.7566C128.266 56.7566 129.617 57.5422 129.617 59.3202V59.9404H127.094V59.7337C127.094 59.1272 126.736 58.7689 126.157 58.7689H121.498V48.3353H124.021V56.7566H126.819ZM142.164 52.3185V58.7689H139.641V52.3185C139.641 49.7825 141.364 48.1561 144.052 48.1561C146.726 48.1561 148.407 49.7825 148.407 52.3185V58.7689H145.885V52.3185C145.885 51.0643 145.141 50.3062 144.066 50.3062C142.977 50.3062 142.164 51.0781 142.164 52.3185ZM163.758 51.3261V53.3384H161.484V58.7689H158.962V48.3353H161.484V51.3261H163.758ZM176.421 52.3185V58.7689H173.899V52.3185C173.899 49.7825 175.621 48.1561 178.309 48.1561C180.983 48.1561 182.664 49.7825 182.664 52.3185V54H180.142V52.3185C180.142 51.0643 179.398 50.3062 178.323 50.3062C177.234 50.3062 176.421 51.0781 176.421 52.3185ZM202.729 52.4563H196.127V54.7856C196.127 56.0261 196.94 56.7979 198.029 56.7979C199.104 56.7979 199.848 56.0399 199.848 54.7856V54.0965H202.371V54.7856C202.371 57.3217 200.689 58.948 198.015 58.948C195.328 58.948 193.605 57.3217 193.605 54.7856V48.3353H196.127V50.444H202.729V52.4563ZM216.008 52.3185V58.7689H213.486V52.3185C213.486 49.7825 215.209 48.1561 217.896 48.1561C220.57 48.1561 222.252 49.7825 222.252 52.3185V54H219.73V52.3185C219.73 51.0643 218.985 50.3062 217.91 50.3062C216.821 50.3062 216.008 51.0781 216.008 52.3185Z" fill="#BF5C9F"/>
</svg>
