<svg width="166" height="43" viewBox="0 0 166 43" fill="none" xmlns="http://www.w3.org/2000/svg">
<path d="M74.0341 24.5612L77.7933 0.741211H86.3132L91.3247 11.1968L93.0783 0.741211H100.998L97.288 24.5612H88.6179L83.5059 14.2067L81.8019 24.5612H74.0341Z" fill="white"/>
<path d="M101.799 0.741231L98.0909 24.5612H114.278L115.331 17.8797H107.462L107.814 15.6857H114.93L115.933 9.46263H108.866L109.217 7.21946H117.086L117.637 3.6488L119.591 24.5612H127.31L132.171 12.3197L133.123 24.5612H140.891L150.514 0.690721H142.044L137.883 12.422L137.032 0.741231H130.817L126.407 12.3702L125.856 0.638916L101.799 0.741231Z" fill="white"/>
<path d="M166 2.11797L162.993 8.59621C162.993 8.59621 160.738 6.75972 158.357 6.60689C155.976 6.45406 155.901 7.9072 157.504 8.74903C159.108 9.59087 163.392 11.7071 164.421 14.2572C165.448 16.8073 163.418 22.5707 159.108 24.2284C154.797 25.8862 149.66 25.758 144.573 22.7999L148.007 16.3735C148.007 16.3735 151.916 19.689 154.748 18.6438C157.579 17.5986 153.796 15.5575 151.014 14.2831C148.232 13.0074 147.581 11.0958 147.782 8.13644C147.983 5.17707 150.438 1.37845 154.773 0.460208C159.109 -0.458038 162.016 -0.0500727 166 2.11797Z" fill="white"/>
<path d="M75.3155 5.09405C71.7408 0.13371 65.6323 0.399211 60.304 0.399211H52.5718L49.4527 17.9897H39.3153L39.8345 15.4771H47.3071L48.3481 9.59074H40.8093L41.2649 7.21029H50.0368L51.3361 0.399211H29.1129L21.9648 11.9064L22.2244 0.399211H10.9175L0 24.6699L9.74801 24.802L14.426 14.0227L14.9465 24.736H21.639L28.7223 14.0227L26.7727 24.78C50.2315 24.78 63.7489 26.2565 69.5315 22.6197C75.1195 19.1061 78.8901 10.0544 75.3155 5.09405ZM66.5753 11.2109C66.4455 14.2208 65.3727 15.9071 63.7158 17.0649C62.0589 18.2215 59.0378 17.8252 59.0378 17.8252L60.8245 7.57422C63.5529 7.3424 66.7051 8.20236 66.5753 11.2109Z" fill="white"/>
<path d="M8.23644 39.3167L7.51116 40.2406L6.31891 39.2272C5.80227 39.9327 4.94783 40.3301 3.845 40.3301C1.95727 40.3301 0.784896 39.1974 0.784896 37.3693V32.7096H2.12617V37.3693C2.12617 38.4721 2.80178 39.1279 3.845 39.1279C4.86834 39.1279 5.52408 38.4821 5.52408 37.3693V32.7096H6.86536V37.3693C6.86536 37.6276 6.84549 37.8661 6.79581 38.0946L8.23644 39.3167ZM23.3707 36.9421V38.1045H21.6916V40.2307H20.3503V35.571C20.3503 34.4582 19.6946 33.8124 18.6712 33.8124C17.628 33.8124 16.9524 34.4682 16.9524 35.571V40.2307H15.6111V35.571C15.6111 33.7429 16.7835 32.6103 18.6712 32.6103C20.5292 32.6103 21.6916 33.7429 21.6916 35.571V36.9421H23.3707ZM32.0891 35.571V40.2307H30.7479V35.571C30.7479 33.7429 31.9202 32.6103 33.808 32.6103C35.6659 32.6103 36.8283 33.7429 36.8283 35.571V40.2307H35.487V35.571C35.487 34.4582 34.8313 33.8124 33.808 33.8124C32.7648 33.8124 32.0891 34.4682 32.0891 35.571ZM51.1306 39.0683H52.8097V40.2307H49.7894V35.571C49.7894 34.4682 49.1137 33.8124 48.0705 33.8124C47.0472 33.8124 46.3915 34.4582 46.3915 35.571V36.8725H45.0502V35.571C45.0502 33.7429 46.2027 32.6103 48.0705 32.6103C49.9583 32.6103 51.1306 33.7429 51.1306 35.571V39.0683ZM64.4094 38.0847C65.5719 38.0847 66.3866 38.8497 66.3866 40.0519V40.2307H65.0652V40.0717C65.0652 39.5849 64.7075 39.2471 64.2107 39.2471H61.1606V40.2307H59.8193V37.3296H61.1606V38.0847H61.3096C61.9951 37.7965 62.7006 37.0017 61.548 36.7533C60.4651 36.495 60.0478 35.9188 60.0478 34.955V34.9351C60.0478 33.5641 61.2003 32.6103 63.0483 32.6103C64.936 32.6103 66.1978 33.6734 66.1581 35.4617C66.1283 36.5844 65.3632 37.6078 63.9822 38.0847H64.4094ZM61.409 34.955C61.409 35.7598 61.9753 35.7896 62.5615 35.9784C63.3364 36.2566 63.4855 36.7533 63.3364 37.26C64.2405 36.7335 64.7472 36.1175 64.8069 35.4915C64.9062 34.4781 64.1213 33.8025 63.0682 33.8025C62.0249 33.8025 61.409 34.2496 61.409 34.9351V34.955ZM87.9854 39.0683C88.81 39.0683 89.4757 39.6147 89.4757 40.5685V41.0355H88.1543V40.807C88.1543 40.4692 87.9257 40.2307 87.5979 40.2307H83.9019V32.7096H85.2233V39.0683H87.9854ZM98.0605 35.571V40.2307H96.7193V35.571C96.7193 33.7429 97.8916 32.6103 99.7794 32.6103C101.637 32.6103 102.8 33.7429 102.8 35.571V40.2307H101.458V35.571C101.458 34.4582 100.803 33.8124 99.7794 33.8124C98.7361 33.8124 98.0605 34.4682 98.0605 35.571ZM113.714 34.9252V36.0976H111.985V40.2307H110.654V32.7096H111.985V34.9252H113.714ZM122.425 35.571V40.2307H121.084V35.571C121.084 33.7429 122.256 32.6103 124.144 32.6103C126.002 32.6103 127.164 33.7429 127.164 35.571V36.8725H125.823V35.571C125.823 34.4582 125.167 33.8124 124.144 33.8124C123.101 33.8124 122.425 34.4682 122.425 35.571ZM141.755 35.5412H136.727V37.3693C136.727 38.4721 137.403 39.1279 138.446 39.1279C139.47 39.1279 140.125 38.4821 140.125 37.3693V36.8129H141.467V37.3693C141.467 39.1974 140.304 40.3301 138.446 40.3301C136.559 40.3301 135.386 39.1974 135.386 37.3693V32.7096H136.727V34.3788H141.755V35.5412ZM151.136 35.571V40.2307H149.795V35.571C149.795 33.7429 150.968 32.6103 152.855 32.6103C154.713 32.6103 155.876 33.7429 155.876 35.571V36.8725H154.534V35.571C154.534 34.4582 153.879 33.8124 152.855 33.8124C151.812 33.8124 151.136 34.4682 151.136 35.571Z" fill="white"/>
</svg>
