<svg width="177" height="48" viewBox="0 0 177 48" fill="none" xmlns="http://www.w3.org/2000/svg">
<path d="M74.2783 29.2861L78.2105 4.3703H87.1224L92.3643 15.3069L94.1986 4.3703H102.482L98.602 29.2861H89.533L84.1859 18.4552L82.4035 29.2861H74.2783Z" fill="white" fill-opacity="0.3"/>
<path d="M103.321 4.37027L99.4419 29.286H116.374L117.475 22.2971H109.244L109.612 20.0022H117.055L118.104 13.4929H110.713L111.08 11.1465H119.31L119.887 7.41158L121.931 29.286H130.005L135.089 16.4813L136.085 29.286H144.21L154.276 4.31743H145.416L141.065 16.5884L140.174 4.37027H133.673L129.061 16.5342L128.484 4.26324L103.321 4.37027Z" fill="white" fill-opacity="0.3"/>
<path d="M170.475 5.81037L167.329 12.5866C167.329 12.5866 164.97 10.6656 162.48 10.5058C159.989 10.3459 159.911 11.8659 161.588 12.7465C163.265 13.627 167.747 15.8406 168.823 18.508C169.897 21.1755 167.774 27.2039 163.265 28.9379C158.757 30.672 153.383 30.5378 148.062 27.4437L151.654 20.7216C151.654 20.7216 155.743 24.1897 158.705 23.0964C161.667 22.0032 157.709 19.8682 154.799 18.5351C151.889 17.2008 151.208 15.2012 151.418 12.1057C151.629 9.01019 154.196 5.03684 158.731 4.07635C163.267 3.11586 166.307 3.54259 170.475 5.81037Z" fill="white" fill-opacity="0.3"/>
<path d="M82.4911 8.92342C78.7519 3.73489 72.3625 4.01261 66.7891 4.01261H58.7011L55.4385 22.4122H44.8348L45.3779 19.7841H53.1943L54.2831 13.627H46.3975L46.8741 11.137H56.0495L57.4086 4.01261H34.1631L26.6862 16.0492L26.9577 4.01261H15.1307L3.71094 29.3998L13.9074 29.538L18.8006 18.2628L19.345 29.4689H26.3454L33.7545 18.2628L31.7152 29.515C56.2532 29.515 70.3924 31.0593 76.4411 27.2553C82.2861 23.58 86.2302 14.1119 82.4911 8.92342ZM73.3489 15.3217C73.2131 18.47 72.091 20.2339 70.3578 21.445C68.6247 22.6547 65.4646 22.2402 65.4646 22.2402L67.3335 11.5177C70.1874 11.2752 73.4846 12.1747 73.3489 15.3217Z" fill="white" fill-opacity="0.7"/>
<path d="M12.2847 43.0513L11.2657 44.2866L10.0202 43.2366C9.46432 43.916 8.56879 44.3072 7.43651 44.3072C5.42928 44.3072 4.14259 43.0925 4.14259 41.1985V36.3812H6.0263V41.1985C6.0263 42.1249 6.63361 42.7014 7.4468 42.7014C8.24969 42.7014 8.80554 42.1352 8.80554 41.1985V36.3812H10.6892V41.1985C10.6892 41.3632 10.679 41.5279 10.6584 41.6823L12.2847 43.0513ZM27.8986 40.4986V42.0014H26.2208V44.1733H24.337V39.356C24.337 38.4193 23.7812 37.8531 22.9783 37.8531C22.1651 37.8531 21.5578 38.4296 21.5578 39.356V44.1733H19.6741V39.356C19.6741 37.462 20.9608 36.2474 22.968 36.2474C24.9649 36.2474 26.2208 37.462 26.2208 39.356V40.4986H27.8986ZM37.3607 39.356V44.1733H35.477V39.356C35.477 37.462 36.7637 36.2474 38.7709 36.2474C40.7679 36.2474 42.0237 37.462 42.0237 39.356V44.1733H40.14V39.356C40.14 38.4193 39.5841 37.8531 38.7812 37.8531C37.968 37.8531 37.3607 38.4296 37.3607 39.356ZM56.7409 42.6705H58.4188V44.1733H54.8572V39.356C54.8572 38.4296 54.2602 37.8531 53.447 37.8531C52.6338 37.8531 52.078 38.4193 52.078 39.356V40.6118H50.1943V39.356C50.1943 37.462 51.4604 36.2474 53.447 36.2474C55.4543 36.2474 56.7409 37.462 56.7409 39.356V42.6705ZM70.6087 41.8367C71.9777 41.8367 72.8218 42.5573 72.8218 43.9366V44.1733H70.9278V44.0189C70.9278 43.6072 70.6499 43.3396 70.2278 43.3396H67.5927V44.1733H65.709V41.1162H67.5927V41.8367H67.675C68.2618 41.497 68.797 40.9103 67.6853 40.6221C66.2854 40.2618 65.956 39.603 65.956 38.7178V38.7075C65.956 37.3179 67.2324 36.2474 69.2191 36.2474C71.2263 36.2474 72.6468 37.3076 72.6262 39.1398C72.6159 40.3236 71.7616 41.4559 70.4028 41.8367H70.6087ZM67.8912 38.7178C67.8912 39.3148 68.3029 39.4075 68.7764 39.5722C69.4558 39.8192 69.7955 40.1486 69.919 40.5192C70.4028 40.1074 70.7116 39.6854 70.7322 39.2428C70.7837 38.3884 70.1455 37.8531 69.2705 37.8531C68.4059 37.8531 67.8912 38.1928 67.8912 38.7075V38.7178ZM94.7121 42.6705C95.7929 42.6705 96.8017 43.2572 96.8017 44.5851V45.0483H94.918V44.8939C94.918 44.441 94.6503 44.1733 94.218 44.1733H90.7388V36.3812H92.6225V42.6705H94.7121ZM106.172 39.356V44.1733H104.289V39.356C104.289 37.462 105.575 36.2474 107.582 36.2474C109.579 36.2474 110.835 37.462 110.835 39.356V44.1733H108.952V39.356C108.952 38.4193 108.396 37.8531 107.593 37.8531C106.78 37.8531 106.172 38.4296 106.172 39.356ZM122.3 38.6149V40.1177H120.601V44.1733H118.718V36.3812H120.601V38.6149H122.3ZM131.757 39.356V44.1733H129.873V39.356C129.873 37.462 131.16 36.2474 133.167 36.2474C135.164 36.2474 136.42 37.462 136.42 39.356V40.6118H134.536V39.356C134.536 38.4193 133.98 37.8531 133.177 37.8531C132.364 37.8531 131.757 38.4296 131.757 39.356ZM151.405 39.4589H146.474V41.1985C146.474 42.1249 147.081 42.7014 147.895 42.7014C148.697 42.7014 149.253 42.1352 149.253 41.1985V40.6838H151.137V41.1985C151.137 43.0925 149.881 44.3072 147.884 44.3072C145.877 44.3072 144.59 43.0925 144.59 41.1985V36.3812H146.474V37.9561H151.405V39.4589ZM161.322 39.356V44.1733H159.438V39.356C159.438 37.462 160.725 36.2474 162.732 36.2474C164.729 36.2474 165.985 37.462 165.985 39.356V40.6118H164.101V39.356C164.101 38.4193 163.545 37.8531 162.743 37.8531C161.929 37.8531 161.322 38.4296 161.322 39.356Z" fill="white" fill-opacity="0.3"/>
</svg>
